# xmcd CD database file
#
# Track frame offsets:
#	150
#	9821
#	23775
#	36225
#	45356
#	53933
#	61769
#	76959
#	83707
#	95126
#	106005
#	118089
#	129730
#	140710
#	149958
#	163341
#	173730
#	185077
#	198567
#
# Disc length: 2858 seconds
#
# Revision: 0
# Processed by: cddbd v1.5.2PL0 Copyright (c) Steve Scherf et al.
# Submitted via: CDex 1.51
#
DISCID=0e0b2813
DTITLE=Jimmy Wakely - In Person Jimy Wakely The Singing Cowboy
DYEAR=2002
DGENRE=Country
TTITLE0=I'm An Old Cowhand
TTITLE1=Tumbling Tumbleweeds
TTITLE2=Song Of The Sierras
TTITLE3=Empty Saddles
TTITLE4=Blue Shadows On The Trail
TTITLE5=When The Bloom Is On The Sage
TTITLE6=Lonely Is The Hunter
TTITLE7=The Yellow Rose Of Texas
TTITLE8=It's A Lonely Trail
TTITLE9=There's A Goldmine In The Sky
TTITLE10=The Last Round-up
TTITLE11=Call Of The Canyon
TTITLE12=Saddle Pals
TTITLE13=Cowboy's Prayer
TTITLE14=The Trail To Mexico
TTITLE15=Cool Water
TTITLE16=Along The Santa Fe Trail
TTITLE17=Take Me Back To My Boot And Saddle
TTITLE18=There's An Empty Cot In The Bunkhouse Tonight
EXTD=YEAR: 2002
EXTT0=
EXTT1=
EXTT2=
EXTT3=
EXTT4=
EXTT5=
EXTT6=
EXTT7=
EXTT8=
EXTT9=
EXTT10=
EXTT11=
EXTT12=
EXTT13=
EXTT14=
EXTT15=
EXTT16=
EXTT17=
EXTT18=
PLAYORDER=
